<?xml version="1.0" encoding="UTF-8" standalone="no"?>
<!DOCTYPE svg PUBLIC "-//W3C//DTD SVG 1.1//EN"
 "http://www.w3.org/Graphics/SVG/1.1/DTD/svg11.dtd">
<!-- Generated by graphviz version 2.40.1 (20161225.0304)
 -->
<!-- Title: snakemake_dag Pages: 1 -->
<svg width="954pt" height="332pt"
 viewBox="0.00 0.00 953.50 332.00" xmlns="http://www.w3.org/2000/svg" xmlns:xlink="http://www.w3.org/1999/xlink">
<g id="graph0" class="graph" transform="scale(1 1) rotate(0) translate(4 328)">
<title>snakemake_dag</title>
<polygon fill="#ffffff" stroke="transparent" points="-4,4 -4,-328 949.5,-328 949.5,4 -4,4"/>
<!-- 0 -->
<g id="node1" class="node">
<title>0</title>
<path fill="none" stroke="#d8a456" stroke-width="2" d="M463,-36C463,-36 433,-36 433,-36 427,-36 421,-30 421,-24 421,-24 421,-12 421,-12 421,-6 427,0 433,0 433,0 463,0 463,0 469,0 475,-6 475,-12 475,-12 475,-24 475,-24 475,-30 469,-36 463,-36"/>
<text text-anchor="middle" x="448" y="-15.5" font-family="sans" font-size="10.00" fill="#000000">all</text>
</g>
<!-- 1 -->
<g id="node2" class="node">
<title>1</title>
<path fill="none" stroke="#56d8c9" stroke-width="2" d="M168,-108C168,-108 12,-108 12,-108 6,-108 0,-102 0,-96 0,-96 0,-84 0,-84 0,-78 6,-72 12,-72 12,-72 168,-72 168,-72 174,-72 180,-78 180,-84 180,-84 180,-96 180,-96 180,-102 174,-108 168,-108"/>
<text text-anchor="middle" x="90" y="-87.5" font-family="sans" font-size="10.00" fill="#000000">add_mosdepth_coverage_to_gvcf</text>
</g>
<!-- 1&#45;&gt;0 -->
<g id="edge6" class="edge">
<title>1&#45;&gt;0</title>
<path fill="none" stroke="#c0c0c0" stroke-width="2" d="M179.8764,-71.9243C254.4011,-56.9361 356.5974,-36.3827 410.7674,-25.4881"/>
<polygon fill="#c0c0c0" stroke="#c0c0c0" stroke-width="2" points="411.5087,-28.9092 420.6223,-23.5061 410.1285,-22.0466 411.5087,-28.9092"/>
</g>
<!-- 2 -->
<g id="node3" class="node">
<title>2</title>
<path fill="none" stroke="#d8c356" stroke-width="2" d="M264,-324C264,-324 234,-324 234,-324 228,-324 222,-318 222,-312 222,-312 222,-300 222,-300 222,-294 228,-288 234,-288 234,-288 264,-288 264,-288 270,-288 276,-294 276,-300 276,-300 276,-312 276,-312 276,-318 270,-324 264,-324"/>
<text text-anchor="middle" x="249" y="-303.5" font-family="sans" font-size="10.00" fill="#000000">vep</text>
</g>
<!-- 2&#45;&gt;0 -->
<g id="edge2" class="edge">
<title>2&#45;&gt;0</title>
<path fill="none" stroke="#c0c0c0" stroke-width="2" d="M239.6823,-287.8112C219.2251,-245.044 176.1021,-136.8319 227,-72 249.444,-43.4116 353.8416,-28.019 410.7554,-21.6246"/>
<polygon fill="#c0c0c0" stroke="#c0c0c0" stroke-width="2" points="411.2356,-25.0931 420.7994,-20.5342 410.4801,-18.134 411.2356,-25.0931"/>
</g>
<!-- 7 -->
<g id="node8" class="node">
<title>7</title>
<path fill="none" stroke="#78d856" stroke-width="2" d="M337,-252C337,-252 251,-252 251,-252 245,-252 239,-246 239,-240 239,-240 239,-228 239,-228 239,-222 245,-216 251,-216 251,-216 337,-216 337,-216 343,-216 349,-222 349,-228 349,-228 349,-240 349,-240 349,-246 343,-252 337,-252"/>
<text text-anchor="middle" x="294" y="-231.5" font-family="sans" font-size="10.00" fill="#000000">artifact_annotation</text>
</g>
<!-- 2&#45;&gt;7 -->
<g id="edge11" class="edge">
<title>2&#45;&gt;7</title>
<path fill="none" stroke="#c0c0c0" stroke-width="2" d="M260.3554,-287.8314C265.4326,-279.7079 271.5227,-269.9637 277.1176,-261.0118"/>
<polygon fill="#c0c0c0" stroke="#c0c0c0" stroke-width="2" points="280.1597,-262.7483 282.4917,-252.4133 274.2237,-259.0383 280.1597,-262.7483"/>
</g>
<!-- 3 -->
<g id="node4" class="node">
<title>3</title>
<path fill="none" stroke="#59d856" stroke-width="2" d="M498,-108C498,-108 398,-108 398,-108 392,-108 386,-102 386,-96 386,-96 386,-84 386,-84 386,-78 392,-72 398,-72 398,-72 498,-72 498,-72 504,-72 510,-78 510,-84 510,-84 510,-96 510,-96 510,-102 504,-108 498,-108"/>
<text text-anchor="middle" x="448" y="-87.5" font-family="sans" font-size="10.00" fill="#000000">simple_sv_annotation</text>
</g>
<!-- 3&#45;&gt;0 -->
<g id="edge4" class="edge">
<title>3&#45;&gt;0</title>
<path fill="none" stroke="#c0c0c0" stroke-width="2" d="M448,-71.8314C448,-64.131 448,-54.9743 448,-46.4166"/>
<polygon fill="#c0c0c0" stroke="#c0c0c0" stroke-width="2" points="451.5001,-46.4132 448,-36.4133 444.5001,-46.4133 451.5001,-46.4132"/>
</g>
<!-- 4 -->
<g id="node5" class="node">
<title>4</title>
<path fill="none" stroke="#56d87b" stroke-width="2" d="M463,-180C463,-180 433,-180 433,-180 427,-180 421,-174 421,-168 421,-168 421,-156 421,-156 421,-150 427,-144 433,-144 433,-144 463,-144 463,-144 469,-144 475,-150 475,-156 475,-156 475,-168 475,-168 475,-174 469,-180 463,-180"/>
<text text-anchor="middle" x="448" y="-159.5" font-family="sans" font-size="10.00" fill="#000000">snpeff</text>
</g>
<!-- 4&#45;&gt;3 -->
<g id="edge8" class="edge">
<title>4&#45;&gt;3</title>
<path fill="none" stroke="#c0c0c0" stroke-width="2" d="M448,-143.8314C448,-136.131 448,-126.9743 448,-118.4166"/>
<polygon fill="#c0c0c0" stroke="#c0c0c0" stroke-width="2" points="451.5001,-118.4132 448,-108.4133 444.5001,-118.4133 451.5001,-118.4132"/>
</g>
<!-- 5 -->
<g id="node6" class="node">
<title>5</title>
<path fill="none" stroke="#56d8a2" stroke-width="2" d="M355.5,-108C355.5,-108 248.5,-108 248.5,-108 242.5,-108 236.5,-102 236.5,-96 236.5,-96 236.5,-84 236.5,-84 236.5,-78 242.5,-72 248.5,-72 248.5,-72 355.5,-72 355.5,-72 361.5,-72 367.5,-78 367.5,-84 367.5,-84 367.5,-96 367.5,-96 367.5,-102 361.5,-108 355.5,-108"/>
<text text-anchor="middle" x="302" y="-87.5" font-family="sans" font-size="10.00" fill="#000000">background_annotation</text>
</g>
<!-- 5&#45;&gt;0 -->
<g id="edge5" class="edge">
<title>5&#45;&gt;0</title>
<path fill="none" stroke="#c0c0c0" stroke-width="2" d="M338.842,-71.8314C361.1645,-60.823 389.5219,-46.8385 411.7387,-35.8823"/>
<polygon fill="#c0c0c0" stroke="#c0c0c0" stroke-width="2" points="413.428,-38.9517 420.8487,-31.3897 410.3319,-32.6736 413.428,-38.9517"/>
</g>
<!-- 6 -->
<g id="node7" class="node">
<title>6</title>
<path fill="none" stroke="#56a2d8" stroke-width="2" d="M340.5,-180C340.5,-180 253.5,-180 253.5,-180 247.5,-180 241.5,-174 241.5,-168 241.5,-168 241.5,-156 241.5,-156 241.5,-150 247.5,-144 253.5,-144 253.5,-144 340.5,-144 340.5,-144 346.5,-144 352.5,-150 352.5,-156 352.5,-156 352.5,-168 352.5,-168 352.5,-174 346.5,-180 340.5,-180"/>
<text text-anchor="middle" x="297" y="-159.5" font-family="sans" font-size="10.00" fill="#000000">hotspot_annotation</text>
</g>
<!-- 6&#45;&gt;5 -->
<g id="edge9" class="edge">
<title>6&#45;&gt;5</title>
<path fill="none" stroke="#c0c0c0" stroke-width="2" d="M298.2617,-143.8314C298.7965,-136.131 299.4323,-126.9743 300.0266,-118.4166"/>
<polygon fill="#c0c0c0" stroke="#c0c0c0" stroke-width="2" points="303.52,-118.6317 300.7213,-108.4133 296.5368,-118.1467 303.52,-118.6317"/>
</g>
<!-- 7&#45;&gt;6 -->
<g id="edge10" class="edge">
<title>7&#45;&gt;6</title>
<path fill="none" stroke="#c0c0c0" stroke-width="2" d="M294.757,-215.8314C295.0779,-208.131 295.4594,-198.9743 295.816,-190.4166"/>
<polygon fill="#c0c0c0" stroke="#c0c0c0" stroke-width="2" points="299.3133,-190.5503 296.2328,-180.4133 292.3194,-190.2589 299.3133,-190.5503"/>
</g>
<!-- 8 -->
<g id="node9" class="node">
<title>8</title>
<path fill="none" stroke="#d85656" stroke-width="2" d="M653.5,-108C653.5,-108 540.5,-108 540.5,-108 534.5,-108 528.5,-102 528.5,-96 528.5,-96 528.5,-84 528.5,-84 528.5,-78 534.5,-72 540.5,-72 540.5,-72 653.5,-72 653.5,-72 659.5,-72 665.5,-78 665.5,-84 665.5,-84 665.5,-96 665.5,-96 665.5,-102 659.5,-108 653.5,-108"/>
<text text-anchor="middle" x="597" y="-87.5" font-family="sans" font-size="10.00" fill="#000000">add_multi_snv_in_codon</text>
</g>
<!-- 8&#45;&gt;0 -->
<g id="edge1" class="edge">
<title>8&#45;&gt;0</title>
<path fill="none" stroke="#c0c0c0" stroke-width="2" d="M559.401,-71.8314C536.3665,-60.7006 507.0355,-46.5272 484.2526,-35.5181"/>
<polygon fill="#c0c0c0" stroke="#c0c0c0" stroke-width="2" points="485.7689,-32.3636 475.2422,-31.164 482.7233,-38.6663 485.7689,-32.3636"/>
</g>
<!-- 9 -->
<g id="node10" class="node">
<title>9</title>
<path fill="none" stroke="#9fd856" stroke-width="2" d="M754.5,-108C754.5,-108 695.5,-108 695.5,-108 689.5,-108 683.5,-102 683.5,-96 683.5,-96 683.5,-84 683.5,-84 683.5,-78 689.5,-72 695.5,-72 695.5,-72 754.5,-72 754.5,-72 760.5,-72 766.5,-78 766.5,-84 766.5,-84 766.5,-96 766.5,-96 766.5,-102 760.5,-108 754.5,-108"/>
<text text-anchor="middle" x="725" y="-87.5" font-family="sans" font-size="10.00" fill="#000000">annotate_cnv</text>
</g>
<!-- 9&#45;&gt;0 -->
<g id="edge3" class="edge">
<title>9&#45;&gt;0</title>
<path fill="none" stroke="#c0c0c0" stroke-width="2" d="M683.3676,-74.9064C680.2101,-73.8844 677.0619,-72.9034 674,-72 608.1319,-52.5651 529.926,-35.0986 484.9198,-25.577"/>
<polygon fill="#c0c0c0" stroke="#c0c0c0" stroke-width="2" points="485.5343,-22.1298 475.0284,-23.4994 484.0954,-28.9803 485.5343,-22.1298"/>
</g>
<!-- 10 -->
<g id="node11" class="node">
<title>10</title>
<path fill="none" stroke="#567bd8" stroke-width="2" d="M933.5,-108C933.5,-108 796.5,-108 796.5,-108 790.5,-108 784.5,-102 784.5,-96 784.5,-96 784.5,-84 784.5,-84 784.5,-78 790.5,-72 796.5,-72 796.5,-72 933.5,-72 933.5,-72 939.5,-72 945.5,-78 945.5,-84 945.5,-84 945.5,-96 945.5,-96 945.5,-102 939.5,-108 933.5,-108"/>
<text text-anchor="middle" x="865" y="-87.5" font-family="sans" font-size="10.00" fill="#000000">calculate_seqrun_background</text>
</g>
<!-- 10&#45;&gt;0 -->
<g id="edge7" class="edge">
<title>10&#45;&gt;0</title>
<path fill="none" stroke="#c0c0c0" stroke-width="2" d="M784.4951,-73.5816C781.6296,-73.0406 778.791,-72.5118 776,-72 670.8261,-52.7134 546.0791,-33.058 485.1836,-23.6704"/>
<polygon fill="#c0c0c0" stroke="#c0c0c0" stroke-width="2" points="485.688,-20.2069 475.2722,-22.1463 484.624,-27.1256 485.688,-20.2069"/>
</g>
</g>
</svg>
