<?xml version="1.0" encoding="UTF-8" standalone="no"?>
<!DOCTYPE svg PUBLIC "-//W3C//DTD SVG 1.1//EN"
 "http://www.w3.org/Graphics/SVG/1.1/DTD/svg11.dtd">
<!-- Generated by graphviz version 2.40.1 (20161225.0304)
 -->
<!-- Title: snakemake_dag Pages: 1 -->
<svg width="997pt" height="476pt"
 viewBox="0.00 0.00 996.50 476.00" xmlns="http://www.w3.org/2000/svg" xmlns:xlink="http://www.w3.org/1999/xlink">
<g id="graph0" class="graph" transform="scale(1 1) rotate(0) translate(4 472)">
<title>snakemake_dag</title>
<polygon fill="#ffffff" stroke="transparent" points="-4,4 -4,-472 992.5,-472 992.5,4 -4,4"/>
<!-- 0 -->
<g id="node1" class="node">
<title>0</title>
<path fill="none" stroke="#afd856" stroke-width="2" d="M431,-36C431,-36 401,-36 401,-36 395,-36 389,-30 389,-24 389,-24 389,-12 389,-12 389,-6 395,0 401,0 401,0 431,0 431,0 437,0 443,-6 443,-12 443,-12 443,-24 443,-24 443,-30 437,-36 431,-36"/>
<text text-anchor="middle" x="416" y="-15.5" font-family="sans" font-size="10.00" fill="#000000">all</text>
</g>
<!-- 1 -->
<g id="node2" class="node">
<title>1</title>
<path fill="none" stroke="#567bd8" stroke-width="2" d="M168,-108C168,-108 12,-108 12,-108 6,-108 0,-102 0,-96 0,-96 0,-84 0,-84 0,-78 6,-72 12,-72 12,-72 168,-72 168,-72 174,-72 180,-78 180,-84 180,-84 180,-96 180,-96 180,-102 174,-108 168,-108"/>
<text text-anchor="middle" x="90" y="-87.5" font-family="sans" font-size="10.00" fill="#000000">add_mosdepth_coverage_to_gvcf</text>
</g>
<!-- 1&#45;&gt;0 -->
<g id="edge9" class="edge">
<title>1&#45;&gt;0</title>
<path fill="none" stroke="#c0c0c0" stroke-width="2" d="M171.8428,-71.9243C238.2263,-57.2629 328.721,-37.2763 378.807,-26.2144"/>
<polygon fill="#c0c0c0" stroke="#c0c0c0" stroke-width="2" points="379.8484,-29.5688 388.8582,-23.9945 378.3387,-22.7336 379.8484,-29.5688"/>
</g>
<!-- 2 -->
<g id="node3" class="node">
<title>2</title>
<path fill="none" stroke="#68d856" stroke-width="2" d="M264,-468C264,-468 234,-468 234,-468 228,-468 222,-462 222,-456 222,-456 222,-444 222,-444 222,-438 228,-432 234,-432 234,-432 264,-432 264,-432 270,-432 276,-438 276,-444 276,-444 276,-456 276,-456 276,-462 270,-468 264,-468"/>
<text text-anchor="middle" x="249" y="-447.5" font-family="sans" font-size="10.00" fill="#000000">vep</text>
</g>
<!-- 2&#45;&gt;0 -->
<g id="edge3" class="edge">
<title>2&#45;&gt;0</title>
<path fill="none" stroke="#c0c0c0" stroke-width="2" d="M240.305,-431.8324C228.2698,-404.9721 208,-352.7885 208,-306 208,-306 208,-306 208,-162 208,-116.6667 221.4198,-101.3142 256,-72 291.1624,-42.1922 343.4896,-28.6293 378.6318,-22.6008"/>
<polygon fill="#c0c0c0" stroke="#c0c0c0" stroke-width="2" points="379.6212,-25.9876 388.9483,-20.9621 378.523,-19.0742 379.6212,-25.9876"/>
</g>
<!-- 8 -->
<g id="node9" class="node">
<title>8</title>
<path fill="none" stroke="#88d856" stroke-width="2" d="M337,-396C337,-396 251,-396 251,-396 245,-396 239,-390 239,-384 239,-384 239,-372 239,-372 239,-366 245,-360 251,-360 251,-360 337,-360 337,-360 343,-360 349,-366 349,-372 349,-372 349,-384 349,-384 349,-390 343,-396 337,-396"/>
<text text-anchor="middle" x="294" y="-375.5" font-family="sans" font-size="10.00" fill="#000000">artifact_annotation</text>
</g>
<!-- 2&#45;&gt;8 -->
<g id="edge14" class="edge">
<title>2&#45;&gt;8</title>
<path fill="none" stroke="#c0c0c0" stroke-width="2" d="M260.3554,-431.8314C265.4326,-423.7079 271.5227,-413.9637 277.1176,-405.0118"/>
<polygon fill="#c0c0c0" stroke="#c0c0c0" stroke-width="2" points="280.1597,-406.7483 282.4917,-396.4133 274.2237,-403.0383 280.1597,-406.7483"/>
</g>
<!-- 3 -->
<g id="node4" class="node">
<title>3</title>
<path fill="none" stroke="#56d8a9" stroke-width="2" d="M466,-108C466,-108 366,-108 366,-108 360,-108 354,-102 354,-96 354,-96 354,-84 354,-84 354,-78 360,-72 366,-72 366,-72 466,-72 466,-72 472,-72 478,-78 478,-84 478,-84 478,-96 478,-96 478,-102 472,-108 466,-108"/>
<text text-anchor="middle" x="416" y="-87.5" font-family="sans" font-size="10.00" fill="#000000">simple_sv_annotation</text>
</g>
<!-- 3&#45;&gt;0 -->
<g id="edge5" class="edge">
<title>3&#45;&gt;0</title>
<path fill="none" stroke="#c0c0c0" stroke-width="2" d="M416,-71.8314C416,-64.131 416,-54.9743 416,-46.4166"/>
<polygon fill="#c0c0c0" stroke="#c0c0c0" stroke-width="2" points="419.5001,-46.4132 416,-36.4133 412.5001,-46.4133 419.5001,-46.4132"/>
</g>
<!-- 4 -->
<g id="node5" class="node">
<title>4</title>
<path fill="none" stroke="#56d88a" stroke-width="2" d="M431,-180C431,-180 401,-180 401,-180 395,-180 389,-174 389,-168 389,-168 389,-156 389,-156 389,-150 395,-144 401,-144 401,-144 431,-144 431,-144 437,-144 443,-150 443,-156 443,-156 443,-168 443,-168 443,-174 437,-180 431,-180"/>
<text text-anchor="middle" x="416" y="-159.5" font-family="sans" font-size="10.00" fill="#000000">snpeff</text>
</g>
<!-- 4&#45;&gt;3 -->
<g id="edge10" class="edge">
<title>4&#45;&gt;3</title>
<path fill="none" stroke="#c0c0c0" stroke-width="2" d="M416,-143.8314C416,-136.131 416,-126.9743 416,-118.4166"/>
<polygon fill="#c0c0c0" stroke="#c0c0c0" stroke-width="2" points="419.5001,-118.4132 416,-108.4133 412.5001,-118.4133 419.5001,-118.4132"/>
</g>
<!-- 5 -->
<g id="node6" class="node">
<title>5</title>
<path fill="none" stroke="#ced856" stroke-width="2" d="M321.5,-180C321.5,-180 282.5,-180 282.5,-180 276.5,-180 270.5,-174 270.5,-168 270.5,-168 270.5,-156 270.5,-156 270.5,-150 276.5,-144 282.5,-144 282.5,-144 321.5,-144 321.5,-144 327.5,-144 333.5,-150 333.5,-156 333.5,-156 333.5,-168 333.5,-168 333.5,-174 327.5,-180 321.5,-180"/>
<text text-anchor="middle" x="302" y="-159.5" font-family="sans" font-size="10.00" fill="#000000">bgzip_vcf</text>
</g>
<!-- 5&#45;&gt;0 -->
<g id="edge2" class="edge">
<title>5&#45;&gt;0</title>
<path fill="none" stroke="#c0c0c0" stroke-width="2" d="M284.6203,-143.9102C268.4784,-124.8437 249.1421,-94.5125 265,-72 278.4133,-52.958 338.798,-35.7394 379.0236,-26.0952"/>
<polygon fill="#c0c0c0" stroke="#c0c0c0" stroke-width="2" points="379.8376,-29.4994 388.7753,-23.81 378.2404,-22.684 379.8376,-29.4994"/>
</g>
<!-- 9 -->
<g id="node10" class="node">
<title>9</title>
<path fill="none" stroke="#d8bc56" stroke-width="2" d="M324,-108C324,-108 286,-108 286,-108 280,-108 274,-102 274,-96 274,-96 274,-84 274,-84 274,-78 280,-72 286,-72 286,-72 324,-72 324,-72 330,-72 336,-78 336,-84 336,-84 336,-96 336,-96 336,-102 330,-108 324,-108"/>
<text text-anchor="middle" x="305" y="-87.5" font-family="sans" font-size="10.00" fill="#000000">tabix_vcf</text>
</g>
<!-- 5&#45;&gt;9 -->
<g id="edge15" class="edge">
<title>5&#45;&gt;9</title>
<path fill="none" stroke="#c0c0c0" stroke-width="2" d="M302.757,-143.8314C303.0779,-136.131 303.4594,-126.9743 303.816,-118.4166"/>
<polygon fill="#c0c0c0" stroke="#c0c0c0" stroke-width="2" points="307.3133,-118.5503 304.2328,-108.4133 300.3194,-118.2589 307.3133,-118.5503"/>
</g>
<!-- 6 -->
<g id="node7" class="node">
<title>6</title>
<path fill="none" stroke="#d87556" stroke-width="2" d="M355.5,-252C355.5,-252 248.5,-252 248.5,-252 242.5,-252 236.5,-246 236.5,-240 236.5,-240 236.5,-228 236.5,-228 236.5,-222 242.5,-216 248.5,-216 248.5,-216 355.5,-216 355.5,-216 361.5,-216 367.5,-222 367.5,-228 367.5,-228 367.5,-240 367.5,-240 367.5,-246 361.5,-252 355.5,-252"/>
<text text-anchor="middle" x="302" y="-231.5" font-family="sans" font-size="10.00" fill="#000000">background_annotation</text>
</g>
<!-- 6&#45;&gt;5 -->
<g id="edge11" class="edge">
<title>6&#45;&gt;5</title>
<path fill="none" stroke="#c0c0c0" stroke-width="2" d="M302,-215.8314C302,-208.131 302,-198.9743 302,-190.4166"/>
<polygon fill="#c0c0c0" stroke="#c0c0c0" stroke-width="2" points="305.5001,-190.4132 302,-180.4133 298.5001,-190.4133 305.5001,-190.4132"/>
</g>
<!-- 7 -->
<g id="node8" class="node">
<title>7</title>
<path fill="none" stroke="#d85656" stroke-width="2" d="M340.5,-324C340.5,-324 253.5,-324 253.5,-324 247.5,-324 241.5,-318 241.5,-312 241.5,-312 241.5,-300 241.5,-300 241.5,-294 247.5,-288 253.5,-288 253.5,-288 340.5,-288 340.5,-288 346.5,-288 352.5,-294 352.5,-300 352.5,-300 352.5,-312 352.5,-312 352.5,-318 346.5,-324 340.5,-324"/>
<text text-anchor="middle" x="297" y="-303.5" font-family="sans" font-size="10.00" fill="#000000">hotspot_annotation</text>
</g>
<!-- 7&#45;&gt;6 -->
<g id="edge12" class="edge">
<title>7&#45;&gt;6</title>
<path fill="none" stroke="#c0c0c0" stroke-width="2" d="M298.2617,-287.8314C298.7965,-280.131 299.4323,-270.9743 300.0266,-262.4166"/>
<polygon fill="#c0c0c0" stroke="#c0c0c0" stroke-width="2" points="303.52,-262.6317 300.7213,-252.4133 296.5368,-262.1467 303.52,-262.6317"/>
</g>
<!-- 8&#45;&gt;7 -->
<g id="edge13" class="edge">
<title>8&#45;&gt;7</title>
<path fill="none" stroke="#c0c0c0" stroke-width="2" d="M294.757,-359.8314C295.0779,-352.131 295.4594,-342.9743 295.816,-334.4166"/>
<polygon fill="#c0c0c0" stroke="#c0c0c0" stroke-width="2" points="299.3133,-334.5503 296.2328,-324.4133 292.3194,-334.2589 299.3133,-334.5503"/>
</g>
<!-- 9&#45;&gt;0 -->
<g id="edge1" class="edge">
<title>9&#45;&gt;0</title>
<path fill="none" stroke="#c0c0c0" stroke-width="2" d="M333.01,-71.8314C347.2909,-62.5681 364.8205,-51.1975 380.0834,-41.2972"/>
<polygon fill="#c0c0c0" stroke="#c0c0c0" stroke-width="2" points="382.2815,-44.0434 388.7664,-35.665 378.4721,-38.1706 382.2815,-44.0434"/>
</g>
<!-- 10 -->
<g id="node11" class="node">
<title>10</title>
<path fill="none" stroke="#569ad8" stroke-width="2" d="M621.5,-108C621.5,-108 508.5,-108 508.5,-108 502.5,-108 496.5,-102 496.5,-96 496.5,-96 496.5,-84 496.5,-84 496.5,-78 502.5,-72 508.5,-72 508.5,-72 621.5,-72 621.5,-72 627.5,-72 633.5,-78 633.5,-84 633.5,-84 633.5,-96 633.5,-96 633.5,-102 627.5,-108 621.5,-108"/>
<text text-anchor="middle" x="565" y="-87.5" font-family="sans" font-size="10.00" fill="#000000">add_multi_snv_in_codon</text>
</g>
<!-- 10&#45;&gt;0 -->
<g id="edge6" class="edge">
<title>10&#45;&gt;0</title>
<path fill="none" stroke="#c0c0c0" stroke-width="2" d="M527.401,-71.8314C504.3665,-60.7006 475.0355,-46.5272 452.2526,-35.5181"/>
<polygon fill="#c0c0c0" stroke="#c0c0c0" stroke-width="2" points="453.7689,-32.3636 443.2422,-31.164 450.7233,-38.6663 453.7689,-32.3636"/>
</g>
<!-- 11 -->
<g id="node12" class="node">
<title>11</title>
<path fill="none" stroke="#56d86b" stroke-width="2" d="M696.5,-108C696.5,-108 663.5,-108 663.5,-108 657.5,-108 651.5,-102 651.5,-96 651.5,-96 651.5,-84 651.5,-84 651.5,-78 657.5,-72 663.5,-72 663.5,-72 696.5,-72 696.5,-72 702.5,-72 708.5,-78 708.5,-84 708.5,-84 708.5,-96 708.5,-96 708.5,-102 702.5,-108 696.5,-108"/>
<text text-anchor="middle" x="680" y="-87.5" font-family="sans" font-size="10.00" fill="#000000">stranger</text>
</g>
<!-- 11&#45;&gt;0 -->
<g id="edge4" class="edge">
<title>11&#45;&gt;0</title>
<path fill="none" stroke="#c0c0c0" stroke-width="2" d="M651.2151,-75.6066C648.1406,-74.2981 645.0297,-73.0665 642,-72 577.2206,-49.1975 498.6554,-32.8423 453.2863,-24.4432"/>
<polygon fill="#c0c0c0" stroke="#c0c0c0" stroke-width="2" points="453.7761,-20.9749 443.3107,-22.626 452.5216,-27.8616 453.7761,-20.9749"/>
</g>
<!-- 12 -->
<g id="node13" class="node">
<title>12</title>
<path fill="none" stroke="#56c1d8" stroke-width="2" d="M797.5,-108C797.5,-108 738.5,-108 738.5,-108 732.5,-108 726.5,-102 726.5,-96 726.5,-96 726.5,-84 726.5,-84 726.5,-78 732.5,-72 738.5,-72 738.5,-72 797.5,-72 797.5,-72 803.5,-72 809.5,-78 809.5,-84 809.5,-84 809.5,-96 809.5,-96 809.5,-102 803.5,-108 797.5,-108"/>
<text text-anchor="middle" x="768" y="-87.5" font-family="sans" font-size="10.00" fill="#000000">annotate_cnv</text>
</g>
<!-- 12&#45;&gt;0 -->
<g id="edge8" class="edge">
<title>12&#45;&gt;0</title>
<path fill="none" stroke="#c0c0c0" stroke-width="2" d="M726.425,-74.4398C723.59,-73.5625 720.763,-72.7387 718,-72 624.2687,-46.9403 511.0178,-30.2021 453.4856,-22.6313"/>
<polygon fill="#c0c0c0" stroke="#c0c0c0" stroke-width="2" points="453.7759,-19.1397 443.4088,-21.3244 452.8756,-26.0816 453.7759,-19.1397"/>
</g>
<!-- 13 -->
<g id="node14" class="node">
<title>13</title>
<path fill="none" stroke="#56d8d0" stroke-width="2" d="M976.5,-108C976.5,-108 839.5,-108 839.5,-108 833.5,-108 827.5,-102 827.5,-96 827.5,-96 827.5,-84 827.5,-84 827.5,-78 833.5,-72 839.5,-72 839.5,-72 976.5,-72 976.5,-72 982.5,-72 988.5,-78 988.5,-84 988.5,-84 988.5,-96 988.5,-96 988.5,-102 982.5,-108 976.5,-108"/>
<text text-anchor="middle" x="908" y="-87.5" font-family="sans" font-size="10.00" fill="#000000">calculate_seqrun_background</text>
</g>
<!-- 13&#45;&gt;0 -->
<g id="edge7" class="edge">
<title>13&#45;&gt;0</title>
<path fill="none" stroke="#c0c0c0" stroke-width="2" d="M827.036,-73.3881C824.3273,-72.9081 821.6429,-72.4438 819,-72 685.2425,-49.538 525.2537,-30.3747 453.7543,-22.2114"/>
<polygon fill="#c0c0c0" stroke="#c0c0c0" stroke-width="2" points="453.7893,-18.693 443.4582,-21.0423 452.9994,-25.6483 453.7893,-18.693"/>
</g>
</g>
</svg>
